<?xml version="1.0"?><svg version="1.2" baseProfile="tiny-ps" viewBox="0 0 300 300" xmlns="http://www.w3.org/2000/svg" xmlns:xlink="http://www.w3.org/1999/xlink"><title>bimi logo</title><g><g fill="#faece1" transform="matrix(.1 0 0 -.1 0 300)"><path d="M0 1500V0h3000v3000H0V1500z"/></g><g fill="#f2c6b2" transform="matrix(.1 0 0 -.1 0 300)"><path d="M0 1500V0h3000v3000H0V1500zm1125 632c33-12 103-28 155-37l95-16 195 10 195 10 80 20 80 20 60 1h61l23-16 23-17-7-61c-4-33-8-89-8-122v-62l36-63 35-64 42-37c23-21 48-42 57-46l15-9-27-52-28-52 5-62c3-34 11-82 19-105l13-44 27-29 27-29h50l25 42c14 24 40 58 57 76l32 32h35c19 0 42-4 52-10l18-9 21-49c12-27 26-81 32-119l11-70-10-60c-5-34-17-75-26-93l-16-31-32-19c-17-11-44-22-60-26l-29-6-33 6-34 7-6 20-7 20-11-4-12-4-6-64c-9-87-25-144-61-211l-30-57-73-71-73-71-69-30c-92-43-229-76-405-99l-87-12-183 12-183 11-35 11c-93 29-126 52-271 194l-86 84-31 58-30 57-20 103c-10 57-24 108-30 114l-10 10-12-7-12-8 6-45 6-45-11-13-11-14h-55l-66 70-66 70-43 87-43 86v165l24 26 24 26h78l32-16c18-9 47-28 65-41l33-25 38-77 37-76 15-3 16-3 22 65 22 65 1 73v73l-12 45c-6 25-18 52-26 61l-15 17 52 53 51 54 30 59 30 59 9 116c5 64 13 138 18 165l8 50 24 19 23 19 51-5c27-2 77-14 110-25zm-117-375-47-14-44-36-44-36-13-31-13-31 11-11 10-10 27 40 27 40 36 26 37 25 62 11 61 11 47-11c59-13 93-31 124-64 14-14 30-26 38-26h13v13c0 20-61 74-104 92l-40 17-70 4-71 4-47-13zm841 3c-25-4-60-15-77-24-44-23-102-75-102-92v-14h13c8 0 24 12 38 26 13 14 42 35 64 46l40 21 68 5 67 5 45-17 45-18 25-31 24-32 13 13 12 12-20 27-20 28-45 23-46 23-49 4c-27 2-70 0-95-5zm-890-327-54-28-32-65-33-65-10-84-11-84 12-31c7-17 21-44 32-60l20-28 51-24 51-24h114l56 21c30 11 68 31 84 45l28 24 22 51 22 51 6 67 6 68-17 50-17 50-22 21c-12 12-48 32-80 46l-58 26h-115l-55-27zm204-24 55-21 26-27 26-28 10-58 10-59-7-40c-8-54-26-96-54-125l-23-24-2 9c-1 5-5 21-8 35l-6 26-25-5-25-4v11c0 6 5 11 11 11h10l-6 10-6 10h-60l-24-25-25-24v-23c0-13 7-35 14-50l15-28h-22c-12 0-40 5-62 11l-39 11-32 32-32 32-12 44-12 44 7 45c3 25 15 71 26 103l21 56 23 22c29 27 89 49 137 50h36l55-21zm632 22c-77-36-116-96-130-197l-7-51 13-64 12-63 35-32 35-32 39-11c21-7 61-15 87-18l48-5 51 16 51 17 30 35c42 47 60 84 66 136 3 23 8 62 11 84l6 42-20 44-20 45-33 26c-43 32-98 47-174 47h-60l-40-19zm226-37c15-7 38-27 53-44l26-32 1-21c4-47-4-94-22-143l-19-50-30-29-30-29v64h-41l6 20 6 20-23 1c-42 2-53-2-76-28l-24-26 5-31c2-17 8-40 12-50l8-19-29 7c-16 4-45 15-64 24l-35 17-18 37-18 37-6 54-6 54 13 39c7 21 23 56 37 76l25 37 41 21 42 20 70-6 70-7 26-13zm484-96-46-51 3-16 4-16 31 3 32 3 9-18c5-10 7-24 5-30l-5-13h-67l-6-10-6-10 26-10 26-10 25 6 25 6 9 18c6 10 10 30 10 43v24l-18 16c-10 10-24 17-30 17-19 0-14 12 19 46l31 32-6 11c-12 19-23 13-71-41zm-2080-8-6-10 33-20c18-11 37-21 41-23l8-2-16-37c-20-49-19-55 10-83l24-25h41v27l-25 11-25 12v15c0 9 5 25 10 36l11 19h29v30l-52 30c-56 32-73 36-83 20zm1038-224-51-24-12-22-12-22 16-17 17-16 6 23 6 23 38 20 39 20 34 1c18 1 38-2 45-7l13-7-7-34-6-34h30l11 20 10 20-6 25-6 25-21 15-21 15h-71l-52-24zm552-96c-33-9-75-25-93-34l-33-17-16-34-16-34 13-31 13-31 30-16 30-15 52 4 52 4 39 21 39 20 23 33 22 33v55l-17 21-18 21-30 9-30 8-60-17zM880 943c-8-3-25-15-37-26l-23-20v-64l20-26 20-26 58-21 57-22 52 4 53 5 20 18 20 18v64l-25 25-25 25-54 21c-63 24-114 34-136 25zm601-136-64-12-4-12c-7-20 10-21 99-8 47 7 94 12 105 12l18-2v30l-45 2c-25 0-74-4-109-10z"/></g><g fill="#fcbf47" transform="matrix(.1 0 0 -.1 0 300)"><path d="M0 1500V0h3000v3000H0V1500zm1125 704 100-25 102-6 102-6 173 12c95 7 226 19 291 27l119 15 33-11c18-6 45-22 59-35l26-24v-70l-21-53-22-53-1-60-1-60 30-54 30-54 40-38c22-21 49-45 60-53l20-15-23-42-24-41v-67l-1-68 17-51 17-51 31-26 31-26 15 3 15 3 13 37c7 21 27 58 43 82l31 44 39 7 40 7 37-18 37-18 18-40c10-23 23-72 30-110l12-69-6-59-5-59-26-53-26-52-39-22-39-22h-92l-20 20c-11 11-25 20-31 20h-11l4-31 5-32-14-66-13-66-32-65-32-65-72-72-73-71-63-31c-89-44-236-79-428-104l-95-12-120 7c-66 4-163 12-215 17l-95 9-45 20c-25 11-86 51-136 88l-92 69-41 50c-23 28-54 75-69 105l-27 55-5 109-5 109-12 5-13 4V890l-27-11-27-10-25 11c-14 6-42 25-62 41l-38 30-57 82c-32 45-66 103-76 129l-18 48v111l14 34 14 33 22 12 21 11 48 1h48l39-20c21-11 53-35 71-54l32-33 26-57c14-31 32-61 40-68l15-12 10 27c6 15 17 49 26 76l17 50-5 84-6 84-25 45-25 44 30 22 30 22 31 67 32 66 6 177 7 178 19 37 20 38 39 22 39 23h30c17 0 75-11 130-26zm-88-444c-70-12-142-64-173-122-18-34-17-38 0-38h15l6 20c3 10 26 37 51 59l46 40 56 12 56 11 54-6 53-6 39-20c21-11 48-32 59-46l22-27 10 10 10 10-21 26-20 26-53 25-52 26-55 4-55 5-48-9zm735-31-62-30-20-26-21-26 11-11 10-10 16 22c8 12 35 33 59 47l43 26 62 10 62 10 56-16 55-16 26-30c28-31 41-37 41-16 0 20-50 64-92 81l-37 16h-148l-61-31zm-781-284-43-14-28-26-28-27-27-59-26-60-2-72-2-72 25-50 25-50 54-27 55-28h141l40 19 40 18 34 38c18 21 41 55 49 74l16 36-1 80v81l-16 29c-8 17-28 42-44 56l-28 27-58 21-58 21-37-1c-20 0-57-6-81-14zm193-44 64-29 19-34 18-33-1-86v-86l-27-45c-14-24-33-50-41-58l-16-12v25c0 14-3 32-6 41l-6 16-19-11-19-10-2 8c0 4-1 15-2 23l-1 15-22 3c-30 4-62-15-73-44l-10-25 14-39 14-40-7-4c-13-9-92 14-126 37l-34 22-22 44-22 43 5 67 5 66 22 52c24 55 56 90 99 109l27 12 53 1 52 1 64-29zm616 28c-80-36-112-83-129-188l-10-61 13-49 13-50 28-37 28-36 36-15 36-15 68 6 68 6 38 19c20 11 54 38 74 60l36 40 16 54c9 30 16 74 17 99v44l-15 30c-8 16-28 41-44 56l-28 27-44 16-44 15-56-1h-56l-45-20zm230-38 35-17 23-45 23-44-6-40c-3-22-11-57-17-79l-12-38-41-45-40-45v67l-18-3-18-3 3 23 3 23-27 3-27 3-20-10-19-11-12-35-12-36 16-24c9-13 16-27 16-31v-6l-37 7c-82 15-115 47-138 134l-13 49 8 44c17 86 57 149 115 174l30 14 75-6 75-5 35-18zm471-102-41-51 6-9c3-5 20-9 39-9h34l6-20 7-21-12-14-12-14-29 6-29 6v-34l42 3 43 3 12 25 12 26-6 23-6 23-31 13-31 13 38 35c42 41 45 47 18 47h-19l-41-51zm-2071-2v-14l40-18c45-20 45-22 25-49l-15-20v-67l32-14c18-7 36-11 40-9 13 8 9 24-6 24-8 0-21 7-30 15l-15 15 10 29 10 29 21 5 21 6-13 16c-12 15-101 65-115 65-3 0-5-6-5-13zm1066-212c-22-7-51-23-65-33l-26-19-3-22-3-21h10c6 0 15 9 21 21l12 21 41 19c23 10 54 19 69 19h27l15-22 15-21-10-19c-13-24-8-31 15-22l16 6v65l-18 16c-10 9-32 19-48 22l-29 5-39-15zm10-269-79-11-5-14-5-14 49 7c27 3 75 9 107 13l58 6-4 11c-5 15-29 16-121 2z"/></g><g fill="#7f5d46" transform="matrix(.1 0 0 -.1 0 300)"><path d="M0 1500V0h3000v3000H0V1500zm1776 1451c461-94 838-383 1045-801 57-113 92-215 120-347l21-98 5-160 5-160-20-121-21-121-36-108c-45-133-103-251-186-375l-63-94-96-97c-91-92-200-180-285-229-57-33-32-11 55 48 333 227 562 612 611 1027l12 99-6 121-6 120-16 85c-38 192-112 372-222 539l-57 86-120 121-121 121-101 66c-232 153-464 229-744 243l-115 6-121-16-121-16-104-31-104-30-102-49c-119-56-227-126-337-219l-79-66-76-92c-183-220-286-449-327-727l-17-111 6-145 5-145 17-80c40-190 113-366 219-524l64-96 82-88 83-88 81-63c45-34 98-73 119-85 20-12 37-25 37-27 0-10-61 28-141 87-301 223-492 524-575 909l-19 85v400l18 85c41 192 116 372 224 534l66 101 116 115 116 116 94 63c205 136 430 222 661 250l75 10 140-4 140-4 101-20zm-651-747 100-25 102-6 102-6 173 12c95 7 226 19 291 27l119 15 33-11c18-6 45-22 59-35l26-24v-70l-21-53-22-53-1-60-1-60 30-54 30-54 40-38c22-21 49-45 60-53l20-15-23-42-24-41v-67l-1-68 17-51 17-51 31-26 31-26 15 3 15 3 13 37c7 21 27 58 43 82l31 44 39 7 40 7 37-18 37-18 18-40c10-23 23-72 30-110l12-69-6-59-5-59-26-53-26-52-39-22-39-22h-92l-20 20c-11 11-25 20-31 20h-11l4-31 5-32-14-66-13-66-32-65-32-65-72-72-73-71-63-31c-89-44-236-79-428-104l-95-12-120 7c-66 4-163 12-215 17l-95 9-45 20c-25 11-86 51-136 88l-92 69-41 50c-23 28-54 75-69 105l-27 55-5 109-5 109-12 5-13 4V890l-27-11-27-10-25 11c-14 6-42 25-62 41l-38 30-57 82c-32 45-66 103-76 129l-18 48v111l14 34 14 33 22 12 21 11 48 1h48l39-20c21-11 53-35 71-54l32-33 26-57c14-31 32-61 40-68l15-12 10 27c6 15 17 49 26 76l17 50-5 84-6 84-25 45-25 44 30 22 30 22 31 67 32 66 6 177 7 178 19 37 20 38 39 22 39 23h30c17 0 75-11 130-26zM896 152c-5-4-126 56-126 63 0 3 29-10 65-27 35-18 63-34 61-36zm1324 63c0-6-117-65-127-65-4 1 21 16 57 35 72 38 70 37 70 30zM1327 34c-3-3-12-4-19-1l-13 5 19 1c11 1 17-2 13-5zm360 0c-3-3-12-4-19-1l-13 5 19 1c11 1 17-2 13-5zm-144-11c-23-2-64-2-90 0l-48 3h90l90 1-42-4zm-506 1737c-70-12-142-64-173-122-18-34-17-38 0-38h15l6 20c3 10 26 37 51 59l46 40 56 12 56 11 54-6 53-6 39-20c21-11 48-32 59-46l22-27 10 10 10 10-21 26-20 26-53 25-52 26-55 4-55 5-48-9zm735-31-62-30-20-26-21-26 11-11 10-10 16 22c8 12 35 33 59 47l43 26 62 10 62 10 56-16 55-16 26-30c28-31 41-37 41-16 0 20-50 64-92 81l-37 16h-148l-61-31zm-781-284-43-14-28-26-28-27-27-59-26-60-2-72-2-72 25-50 25-50 54-27 55-28h141l40 19 40 18 34 38c18 21 41 55 49 74l16 36-1 80v81l-16 29c-8 17-28 42-44 56l-28 27-58 21-58 21-37-1c-20 0-57-6-81-14zm193-44 64-29 19-34 18-33-1-86v-86l-27-45c-14-24-33-50-41-58l-16-12v25c0 14-3 32-6 41l-6 16-19-11-19-10-2 8c0 4-1 15-2 23l-1 15-22 3c-30 4-62-15-73-44l-10-25 14-39 14-40-7-4c-13-9-92 14-126 37l-34 22-22 44-22 43 5 67 5 66 22 52c24 55 56 90 99 109l27 12 53 1 52 1 64-29zm616 28c-80-36-112-83-129-188l-10-61 13-49 13-50 28-37 28-36 36-15 36-15 68 6 68 6 38 19c20 11 54 38 74 60l36 40 16 54c9 30 16 74 17 99v44l-15 30c-8 16-28 41-44 56l-28 27-44 16-44 15-56-1h-56l-45-20zm230-38 35-17 23-45 23-44-6-40c-3-22-11-57-17-79l-12-38-41-45-40-45v67l-18-3-18-3 3 23 3 23-27 3-27 3-20-10-19-11-12-35-12-36 16-24c9-13 16-27 16-31v-6l-37 7c-82 15-115 47-138 134l-13 49 8 44c17 86 57 149 115 174l30 14 75-6 75-5 35-18zm471-102-41-51 6-9c3-5 20-9 39-9h34l6-20 7-21-12-14-12-14-29 6-29 6v-34l42 3 43 3 12 25 12 26-6 23-6 23-31 13-31 13 38 35c42 41 45 47 18 47h-19l-41-51zm-2071-2v-14l40-18c45-20 45-22 25-49l-15-20v-67l32-14c18-7 36-11 40-9 13 8 9 24-6 24-8 0-21 7-30 15l-15 15 10 29 10 29 21 5 21 6-13 16c-12 15-101 65-115 65-3 0-5-6-5-13zm1066-212c-22-7-51-23-65-33l-26-19-3-22-3-21h10c6 0 15 9 21 21l12 21 41 19c23 10 54 19 69 19h27l15-22 15-21-10-19c-13-24-8-31 15-22l16 6v65l-18 16c-10 9-32 19-48 22l-29 5-39-15zm10-269-79-11-5-14-5-14 49 7c27 3 75 9 107 13l58 6-4 11c-5 15-29 16-121 2z"/></g><g fill="#fd0702" transform="matrix(.1 0 0 -.1 0 300)"><path d="M0 1500V0h3000v3000H0V1500zm1822 1446c199-46 397-139 559-261l84-63 101-104 100-105 58-86c145-218 220-431 248-710l11-109-12-125-12-126-28-111c-46-182-104-312-211-476l-62-95-122-121-121-120-94-62c-92-60-251-143-301-157-14-3 26 18 88 49 463 227 764 648 823 1151l12 99-6 121-6 120-16 85c-38 192-112 372-222 539l-57 86-120 121-121 121-101 66c-232 153-464 229-744 243l-115 6-121-16-121-16-104-31-104-30-102-49c-119-56-227-126-337-219l-79-66-76-92c-183-220-286-449-327-727l-17-111 6-145 5-145 17-80c40-190 113-366 219-524l64-96 82-88 83-88 81-63c106-81 159-114 286-176 58-28 94-48 80-45-14 4-74 31-135 61l-110 54-89 64-90 65-97 97-98 97-56 78c-31 43-81 125-111 184l-56 105-33 100c-19 55-44 150-57 212l-22 113v330l18 90c51 260 158 486 324 686l80 95 84 71c148 125 292 211 468 276l95 35 100 21c145 30 143 30 345 26l185-3 107-26zm-995-523-5-18v60l5-12c2-7 2-21 0-30zm301-215 117-32 179 2 179 1 196 22 195 21 39-5 39-5 28-27c16-15 31-37 34-50l6-23-25-76-25-77v-94l25-54 25-54 46-43c25-24 54-50 65-58l21-14-27-47-28-46 6-80 5-79 22-46 23-46 23-10 23-11 15 6 16 6v19c0 23 55 107 83 127l21 15h88l33-33 33-33 12-45c17-62 27-155 23-208l-4-44-21-49-21-48-29-25c-16-13-46-30-67-36l-39-12-37 7-37 7-5 20c-3 10-9 19-14 19-9 0-12-19-10-55 1-11-7-55-19-99l-20-78-29-52-30-52-73-70-73-71-65-30c-36-17-96-38-135-47-38-9-86-21-105-26s-85-16-146-24l-111-15-94 5c-52 3-151 9-221 14l-126 8-59 30c-83 41-158 97-234 174l-66 67-31 63-31 64-3 109-3 108-12 5-13 4V894l-12-12c-7-7-24-12-38-12h-26l-24 16c-50 33-103 91-152 163l-50 74-19 53c-21 60-24 102-9 155l10 35 24 23 25 23 44 5 44 5 56-26 56-27 27-32c15-18 40-60 57-95l29-63 10 3c15 5 39 75 51 149l10 67-16 68-17 68-15 16c-21 23-19 37 5 45l21 7 23 36c12 20 30 57 40 82l18 45 3 150 3 151 11 41 12 42 24 29c26 31 79 61 108 62 9 0 70-14 135-32zm1227-26c-3-3-11 0-18 7l-12 12 18-7c10-3 15-9 12-12zm152-199-5-18v60l5-12c2-7 2-21 0-30zM360 1416c0-2-8-10-17-17l-18-14 14 18c13 16 21 21 21 13zm867-1072c-3-3-12-4-19-1l-13 5 19 1c11 1 17-2 13-5zM1050 95l35-13-15-1c-8 0-28 6-45 14-39 17-21 18 25 0zm865-15c-11-5-27-9-35-9h-15l20 9c11 5 27 9 35 9h15l-20-9zm-798-6c-3-3-12-4-19-1l-13 5 19 1c11 1 17-2 13-5zm40-10c-3-3-12-4-19-1l-13 5 19 1c11 1 17-2 13-5zm700 0c-3-3-12-4-19-1l-13 5 19 1c11 1 17-2 13-5zm-622-14 30-8h-25c-14 0-36 4-50 8l-25 8h20c11 0 34-4 50-8zm565 0c-14-4-36-8-50-8h-25l30 8c17 4 39 8 50 8h20l-25-8zm-482-17c-10-2-26-2-35 0l-18 5h70l-17-5zm390 0c-10-2-26-2-35 0l-18 5h70l-17-5zm-135-10c-40-2-107-2-150 0l-78 3h300l-72-3zm-538 1733c-5-2-22-7-36-10-51-11-147-107-137-137l4-11 24 38 25 38 48 30 47 29 73 5 72 4 43-12 44-11 44-41 44-41v15c0 19-45 61-90 84l-35 18-80 3c-44 1-84 1-90-1zm805-5c-44-9-88-32-129-67l-31-26v-33l25 27c14 15 44 39 68 52l43 25 70 7 70 6 52-22 53-23 20-25c24-32 37-21 15 13l-16 25-42 21-42 22-61 3c-33 1-76-1-95-5zm-812-301-48-8-35-22-34-21-31-62c-16-34-34-83-39-110l-8-47 8-46c5-25 16-61 25-80l17-35 50-25 50-26 53-5 53-6 48 12 48 13 31 23c18 13 44 45 59 71l27 46 5 79 6 79-17 43c-22 57-47 79-128 111-71 28-69 28-140 16zm162-48 54-27 20-28 21-28 3-72 4-73-11-42-12-42-30-35c-17-19-35-35-41-35h-9l6 11 7 10-6 25-6 24-27-6-26-7 6 22 5 21h-67l-15-16-16-15v-65l16-22c21-30 15-35-39-27l-44 7-39 22-39 21-23 40-23 40 3 80 3 80 30 60 30 60 34 19c73 42 143 41 231-2zm626 28c-59-23-91-52-119-105l-20-40-1-85-1-85 30-48 30-47 35-18 35-17 67 2 67 2 33 17c18 9 48 27 66 41l32 24 19 38c11 20 25 64 32 97l12 59-7 36-6 36-33 37-32 37-55 19-55 20h-40l-40-1-49-19zm132-10 63-9 35-26c19-14 41-40 50-57l16-32-6-58-6-58-25-49-24-49-28-22-28-22-5 34-5 33h-30v40l-23 3-24 4-24-23-24-22v-70l17-19 16-18h-68l-41 19-41 19-22 45-22 45-5 48-6 49 21 55 21 56 37 36c34 31 78 55 108 57 6 0 38-4 73-9zm563-126c-23-26-41-53-41-60v-13l28 5 28 6 13-16 13-15-4-23-3-23-38-3-37-3 5-10c4-5 19-9 35-9h29l16 16 16 17-3 31-3 31-32 16-32 16 34 33c19 19 35 38 35 42 0 19-21 5-59-38zm-2081-9c0-2 18-14 40-25s40-22 40-24-7-17-15-32c-8-16-15-39-15-51v-23l25-16 24-16 18 5 18 4-28 11c-15 7-30 19-34 27l-6 16 11 25 12 24h30v27l-49 26c-46 25-71 33-71 22zm1059-215c-57-17-98-58-82-83l6-10 8 21 8 21 41 21 41 21 41-3 41-3 11-17 11-18-12-19c-14-23-5-35 14-20l13 11v48l-20 20-20 20-37-1c-21 0-50-4-64-9zm-16-272-53-10v-20l23 6c12 3 59 9 105 12l82 7v17l-52-1c-29-1-77-6-105-11z"/></g><g fill="#0b0807" transform="matrix(.1 0 0 -.1 0 300)"><path d="M0 1500V0h3000v3000H0V1500zm1822 1446c199-46 397-139 559-261l84-63 101-104 100-105 58-86c145-218 220-431 248-710l11-109-12-125-12-126-28-111c-46-182-104-312-211-476l-62-95-122-121-121-120-86-57c-47-31-126-77-175-102l-89-46-105-33c-58-19-139-42-180-51l-75-16-150-6-150-6-90 12c-253 34-479 123-685 270l-84 60-97 97-98 97-56 78c-31 43-81 125-111 184l-56 105-33 100c-19 55-44 150-57 212l-22 113v330l18 90c51 260 158 486 324 686l80 95 84 71c148 125 292 211 468 276l95 35 100 21c145 30 143 30 345 26l185-3 107-26zm-517-270c-54-25-79-48-89-84l-7-22-42 24c-23 13-57 27-75 31l-33 7-51-13-52-12-63-61-63-62v-74h-38c-21 0-62-7-90-15l-52-16-36-31c-19-17-42-45-51-62l-17-31 1-73 1-73 25-38 26-39-32-5c-18-3-51-17-74-33l-43-27-20-42-20-41v-95l16-32c9-18 26-42 38-55l21-23-18-10c-22-13-47-61-47-93 0-27 26-91 47-117l14-16-52-5-51-5-30-30-29-30-9-39c-14-58-12-105 6-160l17-49 59-92 60-93 51-40c57-46 83-55 133-47l34 6-5-9c-3-6-1-36 5-67l10-58 26-51 26-52 47-44c68-65 219-174 276-198l49-21 110-12 111-12 165 1 165 1 125 26c169 36 215 49 282 81l56 27 62 55c83 74 104 100 141 174l30 61 16 74 16 74 47-6 47-5 39 12c22 7 52 22 68 33l29 20 29 63 29 63 6 73 6 74-27 86-26 86-31 26c-17 14-41 29-55 32-30 8-30 8 2 75l27 54 5 70 4 71-22 52-23 52-29 25-30 25 11 32c6 17 11 53 11 80v49l-25 49-25 49-22 12c-13 7-39 16-58 19l-35 6 3 13c1 7 5 32 8 55l6 41-12 43-11 43-47 48-47 48-67 13-68 12-23-6-23-5-13 34-12 34-45 44-44 44-42 12c-23 7-65 15-93 18l-53 6-51-13-51-12-14-19-13-19-18 20-18 20-54 20-54 20h-124l-50-24zm-177-468 117-32 179 2 179 1 196 22 195 21 39-5 39-5 28-27c16-15 31-37 34-50l6-23-25-76-25-77v-94l25-54 25-54 46-43c25-24 54-50 65-58l21-14-27-47-28-46 6-80 5-79 22-46 23-46 23-10 23-11 15 6 16 6v19c0 23 55 107 83 127l21 15h88l33-33 33-33 12-45c17-62 27-155 23-208l-4-44-21-49-21-48-29-25c-16-13-46-30-67-36l-39-12-37 7-37 7-5 20c-3 10-9 19-14 19-9 0-12-19-10-55 1-11-7-55-19-99l-20-78-29-52-30-52-73-70-73-71-65-30c-36-17-96-38-135-47-38-9-86-21-105-26s-85-16-146-24l-111-15-94 5c-52 3-151 9-221 14l-126 8-59 30c-83 41-158 97-234 174l-66 67-31 63-31 64-3 109-3 108-12 5-13 4V894l-12-12c-7-7-24-12-38-12h-26l-24 16c-50 33-103 91-152 163l-50 74-19 53c-21 60-24 102-9 155l10 35 24 23 25 23 44 5 44 5 56-26 56-27 27-32c15-18 40-60 57-95l29-63 10 3c15 5 39 75 51 149l10 67-16 68-17 68-15 16c-21 23-19 37 5 45l21 7 23 36c12 20 30 57 40 82l18 45 3 150 3 151 11 41 12 42 24 29c26 31 79 61 108 62 9 0 70-14 135-32zm-93-452c-5-2-22-7-36-10-51-11-147-107-137-137l4-11 24 38 25 38 48 30 47 29 73 5 72 4 43-12 44-11 44-41 44-41v15c0 19-45 61-90 84l-35 18-80 3c-44 1-84 1-90-1zm805-5c-44-9-88-32-129-67l-31-26v-33l25 27c14 15 44 39 68 52l43 25 70 7 70 6 52-22 53-23 20-25c24-32 37-21 15 13l-16 25-42 21-42 22-61 3c-33 1-76-1-95-5zm-812-301-48-8-35-22-34-21-31-62c-16-34-34-83-39-110l-8-47 8-46c5-25 16-61 25-80l17-35 50-25 50-26 53-5 53-6 48 12 48 13 31 23c18 13 44 45 59 71l27 46 5 79 6 79-17 43c-22 57-47 79-128 111-71 28-69 28-140 16zm162-48 54-27 20-28 21-28 3-72 4-73-11-42-12-42-30-35c-17-19-35-35-41-35h-9l6 11 7 10-6 25-6 24-27-6-26-7 6 22 5 21h-67l-15-16-16-15v-65l16-22c21-30 15-35-39-27l-44 7-39 22-39 21-23 40-23 40 3 80 3 80 30 60 30 60 34 19c73 42 143 41 231-2zm626 28c-59-23-91-52-119-105l-20-40-1-85-1-85 30-48 30-47 35-18 35-17 67 2 67 2 33 17c18 9 48 27 66 41l32 24 19 38c11 20 25 64 32 97l12 59-7 36-6 36-33 37-32 37-55 19-55 20h-40l-40-1-49-19zm132-10 63-9 35-26c19-14 41-40 50-57l16-32-6-58-6-58-25-49-24-49-28-22-28-22-5 34-5 33h-30v40l-23 3-24 4-24-23-24-22v-70l17-19 16-18h-68l-41 19-41 19-22 45-22 45-5 48-6 49 21 55 21 56 37 36c34 31 78 55 108 57 6 0 38-4 73-9zm563-126c-23-26-41-53-41-60v-13l28 5 28 6 13-16 13-15-4-23-3-23-38-3-37-3 5-10c4-5 19-9 35-9h29l16 16 16 17-3 31-3 31-32 16-32 16 34 33c19 19 35 38 35 42 0 19-21 5-59-38zm-2081-9c0-2 18-14 40-25s40-22 40-24-7-17-15-32c-8-16-15-39-15-51v-23l25-16 24-16 18 5 18 4-28 11c-15 7-30 19-34 27l-6 16 11 25 12 24h30v27l-49 26c-46 25-71 33-71 22zm1059-215c-57-17-98-58-82-83l6-10 8 21 8 21 41 21 41 21 41-3 41-3 11-17 11-18-12-19c-14-23-5-35 14-20l13 11v48l-20 20-20 20-37-1c-21 0-50-4-64-9zm-16-272-53-10v-20l23 6c12 3 59 9 105 12l82 7v17l-52-1c-29-1-77-6-105-11z"/></g></g></svg>